<svg width="1200" height="630" viewBox="0 0 1200 630" fill="none" xmlns="http://www.w3.org/2000/svg">
  <rect width="1200" height="630" fill="#F7FFFB"/>
  <rect x="28" y="28" width="1144" height="574" rx="42" fill="#FFFFFF" stroke="#103F31" stroke-width="6"/>
  <circle cx="946" cy="315" r="186" fill="#E8FFF3" stroke="#103F31" stroke-width="8"/>
  <rect x="775" y="165" width="342" height="300" rx="28" fill="#FFFFFF" stroke="#103F31" stroke-width="8"/>
  <rect x="775" y="165" width="342" height="68" rx="28" fill="#0B3B28"/>
  <text x="820" y="211" font-family="Arial Black, Arial, sans-serif" font-size="36" fill="#55DF95" letter-spacing="28">BINGO</text>
  <g stroke="#103F31" stroke-width="4">
    <path d="M843 233V465M911 233V465M979 233V465M1047 233V465M775 291H1117M775 349H1117M775 407H1117"/>
  </g>
  <circle cx="979" cy="349" r="29" fill="#55DF95" stroke="#103F31" stroke-width="6"/>
  <text x="935" y="363" text-anchor="middle" font-family="Arial Black, Arial, sans-serif" font-size="28" fill="#111514">44</text>
  <text x="845" y="363" text-anchor="middle" font-family="Arial Black, Arial, sans-serif" font-size="28" fill="#111514">7</text>
  <text x="1047" y="421" text-anchor="middle" font-family="Arial Black, Arial, sans-serif" font-size="28" fill="#111514">59</text>
  <circle cx="118" cy="118" r="46" fill="#55DF95" stroke="#103F31" stroke-width="8"/>
  <text x="118" y="134" text-anchor="middle" font-family="Arial Black, Arial, sans-serif" font-size="44" fill="#103F31">B</text>
  <text x="92" y="260" font-family="Arial Black, Arial, sans-serif" font-size="92" fill="#111514">EYES DOWN.</text>
  <text x="92" y="365" font-family="Arial Black, Arial, sans-serif" font-size="92" fill="#55DF95">FEES UP.</text>
  <text x="96" y="430" font-family="Arial, sans-serif" font-size="33" fill="#263431">The classic hall game rebuilt on Solana.</text>
  <text x="96" y="478" font-family="Arial, sans-serif" font-size="33" fill="#263431">1,000,000 $BINGO = 1 live card.</text>
</svg>
